<?xml version="1.0" encoding="UTF-8"?><svg id="uuid-11dc812a-bf43-4473-80d5-89f1fbf37827" xmlns="http://www.w3.org/2000/svg" viewBox="0 0 626 325"><circle cx="370.67" cy="166.61" r="109.38" fill="#f2efde" stroke-width="0"/><circle cx="370.67" cy="166.61" r="77.48" fill="#939a47" stroke-width="0"/><circle cx="370.67" cy="166.61" r="41.02" fill="#204555" stroke-width="0"/><path d="M470.41,63.83c-12.41,14.94-27.28,23.47-33.21,19.05-5.93-4.42-.67-20.12,11.74-35.06,10.05-12.1,25.6-17.09,31.15-18.55,1.08-.29,2.08.46,2.04,1.52-.2,5.46-1.67,20.95-11.72,33.05Z" fill="#81bcbd" stroke-width="0"/><path d="M397.83,84.54c18.44,6.08,35.96,4.94,39.14-2.55s-9.2-18.49-27.64-24.57c-14.93-4.92-31.34-.2-37.05,1.77-1.11.38-1.64,1.64-1.09,2.57,2.84,4.79,11.71,17.85,26.64,22.77Z" fill="#81bcbd" stroke-width="0"/><path d="M482.62,110.46c-11.7,14.79-26.07,22.93-32.09,18.19-6.03-4.74-1.43-20.57,10.27-35.36,9.47-11.97,24.64-16.48,30.08-17.77,1.06-.25,2.07.54,2.07,1.63.01,5.57-.86,21.33-10.33,33.31Z" fill="#81bcbd" stroke-width="0"/><path d="M434.05,25.12c5.04,13.76,3.34,27.04-3.8,29.66s-17.02-6.42-22.06-20.18c-4.08-11.14.94-23.68,3-28.05.4-.85,1.6-1.29,2.46-.9,4.4,2.01,16.33,8.33,20.41,19.48Z" fill="#81bcbd" stroke-width="0"/><path d="M408.53,130.9c18.45,6.91,35.72,6.41,38.58-1.12s-9.79-19.23-28.24-26.14c-14.94-5.59-30.98-1.39-36.54.41-1.08.35-1.56,1.61-.98,2.59,2.99,5,12.25,18.67,27.19,24.26Z" fill="#81bcbd" stroke-width="0"/><path d="M498.52,154.04c-11.7,14.79-26.07,22.93-32.09,18.19-6.03-4.74-1.43-20.57,10.27-35.36,9.47-11.97,24.64-16.48,30.08-17.77,1.06-.25,2.07.54,2.07,1.63.01,5.57-.86,21.33-10.33,33.31Z" fill="#81bcbd" stroke-width="0"/><path d="M423.65,173.3c18.45,6.91,35.72,6.41,38.58-1.12,2.85-7.53-9.79-19.23-28.24-26.14-14.94-5.59-30.98-1.39-36.54.41-1.08.35-1.56,1.61-.98,2.59,2.99,5,12.25,18.67,27.19,24.26Z" fill="#81bcbd" stroke-width="0"/><path d="M426.55,41.91s25.49,99.3,53.5,193.92" fill="none" stroke="#81bcbd" stroke-miterlimit="10" stroke-width="6.98"/><path d="M540.31,184.75c-12.79,18.97-29.47,30.1-37.25,24.85-7.78-5.25-3.71-24.88,9.08-43.85,10.36-15.36,28.36-22.14,34.84-24.17,1.26-.39,2.57.48,2.67,1.8.55,6.77,1.01,26-9.34,41.36Z" fill="#618d8e" stroke-width="0"/><path d="M544.11,212.38c-22.61,3.54-42.11-1.11-43.56-10.38-1.45-9.27,15.7-19.65,38.31-23.19,18.3-2.86,35.52,5.71,41.42,9.08,1.15.66,1.39,2.21.5,3.19-4.58,5.01-18.36,18.44-36.66,21.3Z" fill="#f5c368" stroke-width="0"/><g id="uuid-3be17ef0-00c8-47e3-80d6-a5bd0f5d793e"><path d="M591.63,95.79l-8.05,2.82-1.43.5-11.09,3.89-1.26.44-29.76,10.43c-1.56.55-3.19.38-4.53-.32-.18-.09-.35-.2-.53-.31-1.27-.83-2.21-2.16-2.5-3.8l-5.44-30.93-.23-1.33-2.04-11.61-.26-1.47s0,0,0,0l-1.5-8.5,24.74.93,14.68.55,3.52.13,3.73,5.6,8.37,12.57,13.57,20.4Z" fill="#ff8579" stroke-width="0"/><path d="M593.18,61.56c-1.76-1.03-3.6-1.78-5.47-2.28.37-7.23-3.2-14.4-9.88-18.31s-14.78-3.5-20.91.42c-1.4-1.51-3.05-2.85-4.93-3.95-9.89-5.79-22.37-2.86-27.88,6.55s-1.95,21.72,7.93,27.51c6.79,3.98,14.8,3.84,20.94.32,1.31,1.42,2.85,2.68,4.61,3.71,1.61.94,3.29,1.63,5.01,2.08.01,7.03,3.85,14.04,10.63,18.01,9.96,5.83,22.5,2.93,28-6.47,5.51-9.41,1.9-21.76-8.06-27.59Z" fill="#ff8579" stroke-width="0"/><path d="M571.06,103l-1.26.44-29.76,10.43c-1.56.55-3.19.38-4.53-.32-.18-.09-.35-.2-.53-.31-1.27-.83-2.21-2.16-2.5-3.8l-5.44-30.93-.23-1.33c7.56,1.45,15.99,4.64,24.27,9.49,8.19,4.8,15.04,10.52,19.99,16.33Z" fill="#1a4157" stroke-width="0"/></g><path d="M537.31,110.04s-33.55,48.65-60.09,116.19" fill="none" stroke="#0f4657" stroke-miterlimit="10" stroke-width="6.45"/><g id="uuid-a299598e-bcf4-4c1a-8b25-b1c673947a38"><path d="M160.56,149.24l55.66-36.1c-1.22-10.1-4.04-19.83-7.53-28.7l-39.82,25.83-8.31,38.97Z" fill="#618d8e" stroke-width="0"/><path d="M207.25,80.9c-6.57-15.5-14.92-28-19.73-34.59-.99-1.36-2.66-2.28-4.44-2.66l-13.09,61.43,37.27-24.17Z" fill="#618d8e" stroke-width="0"/><path d="M179.46,43.68c-.53.13-1.04.32-1.51.59-7.47,4.27-21.22,12.95-34.15,25.45l22.66,34.93,13-60.98Z" fill="#618d8e" stroke-width="0"/><path d="M165.42,109.54l-24.18-37.27c-6.83,6.94-13.29,14.97-18.3,23.98l34.1,52.58,8.38-39.29Z" fill="#618d8e" stroke-width="0"/><path d="M156,153.71l-34.95-53.89c-2.89,5.79-5.16,11.96-6.55,18.49s-2.33,12.93-2.86,19.2l35.99,55.49,8.38-39.29Z" fill="#618d8e" stroke-width="0"/><path d="M111.26,143.41c-1.58,35.88,10.64,65.44,31.48,72.53l3.85-18.06-35.33-54.47Z" fill="#618d8e" stroke-width="0"/><path d="M150.04,198.62l-3.89,18.27s0,0,0,0c23.76,5.06,49.78-19.37,63.32-56.81l-59.43,38.55Z" fill="#618d8e" stroke-width="0"/><path d="M151.14,193.42l60.27-39.09c1.48-4.68,2.77-9.53,3.84-14.54,1.6-7.5,1.94-15.05,1.39-22.43l-57.18,37.09-8.31,38.97Z" fill="#618d8e" stroke-width="0"/><path d="M167.69,106.56l2.29-1.48,13.09-61.43c-1.21-.26-2.47-.25-3.62.03l-13,60.98,1.23,1.9Z" fill="#f2efde" stroke-width="0"/><path d="M148.17,199.83l-.69-1.06-.22.15-.67-1.03-3.85,18.06c1.11.38,2.25.7,3.41.95l3.89-18.27-1.87,1.21Z" fill="#f2efde" stroke-width="0"/><polygon points="157.58 155.66 156.89 154.6 156.67 154.74 156 153.71 147.63 193 148.86 194.9 151.14 193.42 159.45 154.45 157.58 155.66" fill="#f2efde" stroke-width="0"/><polygon points="167 111.49 166.31 110.42 166.09 110.57 165.42 109.54 157.04 148.83 158.27 150.73 160.56 149.24 168.87 110.27 167 111.49" fill="#f2efde" stroke-width="0"/><path d="M166.09,110.57l.22-.15.69,1.06,1.87-1.21,39.82-25.83c-.47-1.2-.95-2.38-1.45-3.54l-37.27,24.17-2.29,1.48-1.23-1.9-22.66-34.93c-.86.83-1.71,1.68-2.56,2.54l24.18,37.27.67,1.03Z" fill="#f2efde" stroke-width="0"/><path d="M156.67,154.74l.22-.15.69,1.06,1.87-1.21,57.18-37.09c-.11-1.41-.25-2.81-.42-4.21l-55.66,36.1-2.29,1.48-1.23-1.9-34.1-52.58c-.65,1.18-1.28,2.37-1.89,3.58l34.95,53.89.67,1.03Z" fill="#f2efde" stroke-width="0"/><path d="M147.25,198.91l.22-.15.69,1.06,1.87-1.21,59.43-38.55c.68-1.88,1.33-3.8,1.94-5.74l-60.27,39.09-2.29,1.48-1.23-1.9-35.99-55.49c-.17,1.98-.3,3.95-.38,5.9l35.33,54.47.67,1.03Z" fill="#f2efde" stroke-width="0"/></g><g id="uuid-44dff9b8-c42c-42af-bc66-07632753819c"><path d="M82.86,187.07l7.39-65.93c-8.58-5.46-17.89-9.45-26.96-12.38l-5.28,47.17,24.86,31.14Z" fill="#81bcbd" stroke-width="0"/><path d="M59.63,107.64c-16.15-4.75-31.11-6.23-39.26-6.68-1.68-.09-3.45.61-4.87,1.74l39.19,49.08,4.95-44.14Z" fill="#81bcbd" stroke-width="0"/><path d="M13.22,105.52c-.23.5-.41,1.01-.5,1.54-1.44,8.49-3.44,24.62-1.97,42.54l41.38,4.64L13.22,105.52Z" fill="#81bcbd" stroke-width="0"/><path d="M55.24,158.14l-44.15-4.95c1.04,9.68,3.15,19.76,6.94,29.36l62.28,6.98-25.07-31.39Z" fill="#81bcbd" stroke-width="0"/><path d="M83.42,193.43l-63.83-7.15c2.65,5.9,5.97,11.57,10.14,16.79s8.52,10,13.03,14.39l65.72,7.36-25.07-31.39Z" fill="#81bcbd" stroke-width="0"/><path d="M47.08,221.49c26.74,23.98,57.35,33.27,76.04,21.65l-11.52-14.43-64.52-7.23Z" fill="#81bcbd" stroke-width="0"/><path d="M114.36,226.52l11.65,14.59s0,0,0,0c18.98-15.16,16.6-50.77-3.77-84.99l-7.89,70.4Z" fill="#81bcbd" stroke-width="0"/><path d="M111.04,222.36l8-71.39c-2.68-4.11-5.61-8.18-8.81-12.18-4.79-6-10.4-11.04-16.47-15.3l-7.59,67.73,24.86,31.14Z" fill="#81bcbd" stroke-width="0"/><path d="M54.38,154.49l.3-2.71L15.49,102.7c-.97.77-1.76,1.75-2.27,2.82l38.9,48.72,2.25.25Z" fill="#f2efde" stroke-width="0"/><path d="M114.11,228.73l-1.26-.14-.03.27-1.22-.14,11.52,14.43c1-.62,1.96-1.29,2.89-2.03l-11.65-14.59-.25,2.21Z" fill="#f2efde" stroke-width="0"/><polygon points="85.93 193.44 84.67 193.3 84.64 193.57 83.42 193.43 108.49 224.82 110.74 225.07 111.04 222.36 86.18 191.23 85.93 193.44" fill="#f2efde" stroke-width="0"/><polygon points="57.75 158.15 56.49 158.01 56.46 158.27 55.24 158.14 80.31 189.53 82.56 189.78 82.86 187.07 58 155.93 57.75 158.15" fill="#f2efde" stroke-width="0"/><path d="M56.46,158.27l.03-.27,1.26.14.25-2.21,5.28-47.17c-1.22-.39-2.44-.77-3.66-1.13l-4.95,44.14-.3,2.71-2.25-.25-41.38-4.64c.1,1.19.21,2.39.34,3.59l44.15,4.95,1.22.14Z" fill="#f2efde" stroke-width="0"/><path d="M84.64,193.57l.03-.27,1.26.14.25-2.21,7.59-67.73c-1.16-.81-2.33-1.59-3.52-2.35l-7.39,65.93-.3,2.71-2.25-.25-62.28-6.98c.49,1.25,1.02,2.49,1.57,3.73l63.83,7.15,1.22.14Z" fill="#f2efde" stroke-width="0"/><path d="M112.83,228.86l.03-.27,1.26.14.25-2.21,7.89-70.4c-1.02-1.72-2.09-3.44-3.21-5.14l-8,71.39-.3,2.71-2.25-.25-65.72-7.36c1.43,1.39,2.87,2.73,4.32,4.03l64.52,7.23,1.22.14Z" fill="#f2efde" stroke-width="0"/></g><g id="uuid-b2df6f9b-ce9f-4fa6-a4d2-c96f21c8ee29"><path d="M132.4,54.42l-3.86,7.39-.68,1.31-5.31,10.18-.61,1.16-14.26,27.33c-.75,1.44-2.02,2.4-3.45,2.8-.19.05-.39.1-.58.13-1.46.25-3.03-.06-4.32-1.04l-24.55-18.43-1.06-.79-9.22-6.92-1.16-.88s0,0,0,0l-6.74-5.06,18.27-15.88,10.84-9.42,2.6-2.26,6.41,1.51,14.37,3.38,23.31,5.48Z" fill="#f5c368" stroke-width="0"/><path d="M110.63,28.96c-1.95.44-3.76,1.14-5.43,2.03-4.57-5.4-11.91-8.13-19.28-6.46-7.42,1.68-12.88,7.37-14.64,14.27-2.01-.14-4.08,0-6.16.48-10.92,2.48-17.87,12.91-15.51,23.3s13.12,16.8,24.05,14.33c7.5-1.7,13.13-7.15,15.15-13.76,1.89.14,3.83,0,5.77-.43,1.78-.4,3.44-1.04,4.97-1.86,4.71,5.01,12.12,7.44,19.62,5.74,11-2.5,18.01-12.94,15.65-23.33s-13.18-16.79-24.19-14.29Z" fill="#f5c368" stroke-width="0"/><path d="M122.55,73.31l-.61,1.16-14.26,27.33c-.75,1.44-2.02,2.4-3.45,2.8-.19.05-.39.1-.58.13-1.46.25-3.03-.06-4.32-1.04l-24.55-18.43-1.06-.79c6.36-4.02,14.5-7.38,23.65-9.45s17.75-2.55,25.17-1.71Z" fill="#0f4657" stroke-width="0"/></g><path d="M194.76,236.81s-55.65-7.91-93.1-140.27" fill="none" stroke="#0f4657" stroke-miterlimit="10" stroke-width="7.06"/><ellipse cx="589.07" cy="146.58" rx="18.62" ry="15.67" transform="translate(-7.39 33.79) rotate(-3.27)" fill="#f2ecde" stroke-width="0"/><path d="M604.7,154.82c2.04-2.69,3.15-5.91,2.96-9.31s-1.66-6.47-4-8.91l1.04,18.22Z" fill="none" stroke-width="0"/><path d="M573.72,137.97l1.08,18.91c1.26,1.25,2.76,2.32,4.43,3.17l-1.47-25.72c-1.56,1.03-2.92,2.27-4.04,3.65Z" fill="none" stroke-width="0"/><path d="M593.35,131.25l1.72,30.07c1.48-.45,2.87-1.04,4.14-1.77l-1.54-27.02c-1.35-.57-2.8-1.01-4.32-1.28Z" fill="none" stroke-width="0"/><path d="M583.37,131.75l1.72,30.21c1.37.23,2.8.33,4.26.29l-1.78-31.27c-1.46.12-2.86.38-4.2.77Z" fill="none" stroke-width="0"/><rect x="556.83" y="143.07" width="30.73" height="8.33" rx="4.16" ry="4.16" transform="translate(686.61 -432.42) rotate(86.73)" fill="#0f4657" stroke-width="0"/><path d="M571.46,148.87s14.95-3.73,29.34-19.87" fill="none" stroke="#0f4657" stroke-miterlimit="10" stroke-width="1.51"/><path d="M602.76,163.31s-16.63-16.49-34.39-15.47" fill="none" stroke="#0f4657" stroke-miterlimit="10" stroke-width="1.51"/><path d="M612.65,145.31s-21.91-.7-40.35,3.41" fill="none" stroke="#0f4657" stroke-miterlimit="10" stroke-width="1.51"/><circle cx="600.8" cy="129" r="3.33" fill="#ff8579" stroke-width="0"/><circle cx="602.76" cy="163.31" r="3.33" fill="#ff8579" stroke-width="0"/><circle cx="612.65" cy="145.31" r="3.33" fill="#ff8579" stroke-width="0"/><path d="M575.17,146.41s-61.08,2.85-73.86,82.45c-.61,3.81-1.35,7.42-2.19,10.84" fill="none" stroke="#0f4657" stroke-miterlimit="10" stroke-width="7.06"/><ellipse cx="32.86" cy="288.79" rx="18.62" ry="15.67" transform="translate(-197.45 111.48) rotate(-45.92)" fill="#f2ecde" stroke-width="0"/><path d="M15.77,293.32c.32,3.36,1.69,6.48,4.13,8.85,2.45,2.37,5.61,3.63,8.98,3.85l-13.11-12.69Z" fill="none" stroke-width="0"/><path d="M49.98,284.72l-13.6-13.17c-1.77-.06-3.6.16-5.4.67l18.51,17.93c.45-1.82.61-3.65.5-5.42Z" fill="none" stroke-width="0"/><path d="M40.09,302.97l-21.64-20.96c-.78,1.33-1.4,2.71-1.85,4.11l19.44,18.83c1.38-.5,2.74-1.16,4.05-1.98Z" fill="none" stroke-width="0"/><path d="M47.09,295.84l-21.74-21.05c-1.17.76-2.28,1.66-3.33,2.68l22.5,21.79c.99-1.08,1.85-2.22,2.57-3.41Z" fill="none" stroke-width="0"/><rect x="29.45" y="272.72" width="30.73" height="8.33" rx="4.16" ry="4.16" transform="translate(-115.62 506.95) rotate(-135.92)" fill="#0f4657" stroke-width="0"/><path d="M44.25,275.18s-8.47,12.87-8.12,34.49" fill="none" stroke="#0f4657" stroke-miterlimit="10" stroke-width="1.51"/><path d="M11.45,285.76s23.41.86,35.78-11.92" fill="none" stroke="#0f4657" stroke-miterlimit="10" stroke-width="1.51"/><path d="M16.37,305.7s16.59-14.33,27.37-29.85" fill="none" stroke="#0f4657" stroke-miterlimit="10" stroke-width="1.51"/><circle cx="36.13" cy="309.67" r="3.33" fill="#ff8579" stroke-width="0"/><circle cx="11.45" cy="285.76" r="3.33" fill="#ff8579" stroke-width="0"/><circle cx="16.37" cy="305.7" r="3.33" fill="#ff8579" stroke-width="0"/><path d="M42.87,278.74s34-49.79,64.81-3.33" fill="none" stroke="#0f4657" stroke-miterlimit="10" stroke-width="7.06"/><circle cx="234.47" cy="72.75" r="43.75" fill="#f2efde" stroke-width="0"/><circle cx="290.93" cy="38.88" r="14.11" fill="#204555" stroke-width="0"/></svg>